<svg width="80" height="80" viewBox="0 0 80 80" xmlns="http://www.w3.org/2000/svg">
  <defs>
    <linearGradient id="bg" x1="8" y1="8" x2="72" y2="72" gradientUnits="userSpaceOnUse">
      <stop offset="0" stop-color="#111827"/>
      <stop offset="1" stop-color="#050816"/>
    </linearGradient>
    <linearGradient id="cyan" x1="12" y1="18" x2="44" y2="64" gradientUnits="userSpaceOnUse">
      <stop offset="0" stop-color="#29F2FF"/>
      <stop offset="1" stop-color="#08B6D8"/>
    </linearGradient>
    <linearGradient id="pink" x1="45" y1="16" x2="70" y2="64" gradientUnits="userSpaceOnUse">
      <stop offset="0" stop-color="#FF3A9A"/>
      <stop offset="1" stop-color="#E51872"/>
    </linearGradient>
    <filter id="softShadow" x="-20%" y="-20%" width="140%" height="140%">
      <feDropShadow dx="0" dy="4" stdDeviation="3" flood-color="#000000" flood-opacity="0.35"/>
    </filter>
  </defs>

  <rect width="80" height="80" rx="18" fill="url(#bg)"/>

  <g filter="url(#softShadow)">
    <path d="M40 18H26C15 18 8 26 8 40C8 55 16 64 28 64H41V52H30C23 52 19 48 19 40C19 32 23 29 30 29H40V18Z"
          fill="url(#cyan)" stroke="#F8FAFC" stroke-width="4" stroke-linejoin="round"/>
    <path d="M41 18H52C65 18 73 27 73 40C73 53 65 62 52 62H50V70H41V18Z"
          fill="url(#pink)" stroke="#F8FAFC" stroke-width="4" stroke-linejoin="round"/>
    <path d="M51 30H53C59 30 62 35 62 40C62 45 59 50 53 50H51V30Z"
          fill="#111827"/>
    <path d="M40 18V52H30C23 52 19 48 19 40C19 32 23 29 30 29H40" fill="none" stroke="#F8FAFC" stroke-width="3" stroke-linecap="round" stroke-linejoin="round"/>
  </g>

  <g transform="translate(28 8)">
    <rect x="0" y="6" width="32" height="18" rx="6" fill="#282942" stroke="#F8FAFC" stroke-width="3"/>
    <path d="M10 13L6 16L10 19" fill="none" stroke="#FF3A9A" stroke-width="4" stroke-linecap="round" stroke-linejoin="round"/>
    <path d="M22 13L26 16L22 19" fill="none" stroke="#29F2FF" stroke-width="4" stroke-linecap="round" stroke-linejoin="round"/>
    <path d="M14 19H18" stroke="#F8FAFC" stroke-width="3" stroke-linecap="round"/>
    <path d="M6 6V2M16 6V2M26 6V2" stroke="#FF3A9A" stroke-width="4" stroke-linecap="round"/>
  </g>

  <g>
    <ellipse cx="31" cy="43" rx="3" ry="5" fill="#0B1020"/>
    <ellipse cx="48" cy="43" rx="3" ry="5" fill="#0B1020"/>
    <circle cx="32" cy="41" r="1.4" fill="#FFFFFF"/>
    <circle cx="49" cy="41" r="1.4" fill="#FFFFFF"/>
    <path d="M36 50C38 53 42 53 44 50" fill="none" stroke="#0B1020" stroke-width="3" stroke-linecap="round"/>
    <path d="M25 50C27 48 29 48 31 50" stroke="#FF5EA8" stroke-width="3" stroke-linecap="round"/>
    <path d="M50 50C52 48 54 48 56 50" stroke="#FF5EA8" stroke-width="3" stroke-linecap="round"/>
  </g>
</svg>
